<svg width="96" height="96" viewBox="0 0 512 512" fill="none" xmlns="http://www.w3.org/2000/svg">
  <!-- Фон -->
  <rect width="512" height="512" rx="15" fill="#1890ff"/>
  
  <!-- Документ/журнал -->
  <rect x="18.75" y="15" width="52.5" height="67.5" rx="3.75" fill="white" stroke="#e6f7ff" stroke-width="2"/>
  
  <!-- Строки текста в журнале -->
  <rect x="24.375" y="22.5" width="37.5" height="1.5" rx="0.75" fill="#1890ff" opacity="0.7"/>
  <rect x="24.375" y="26.25" width="33.75" height="1.5" rx="0.75" fill="#1890ff" opacity="0.5"/>
  <rect x="24.375" y="30" width="41.25" height="1.5" rx="0.75" fill="#1890ff" opacity="0.7"/>
  <rect x="24.375" y="33.75" width="30" height="1.5" rx="0.75" fill="#1890ff" opacity="0.5"/>
  <rect x="24.375" y="37.5" width="35.625" height="1.5" rx="0.75" fill="#1890ff" opacity="0.7"/>
  
  <!-- Камера/фото иконка -->
  <circle cx="60" cy="37.5" r="7.5" fill="#52c41a" stroke="white" stroke-width="1.125"/>
  <circle cx="60" cy="37.5" r="4.6875" fill="white"/>
  <circle cx="60" cy="37.5" r="2.8125" fill="#52c41a"/>
  
  <!-- Календарь -->
  <rect x="24.375" y="46.875" width="33.75" height="22.5" rx="1.5" fill="#f0f0f0" stroke="#d9d9d9" stroke-width="0.375"/>
  <rect x="24.375" y="46.875" width="33.75" height="5.625" rx="1.5" fill="#1890ff"/>
  <rect x="26.25" y="48.75" width="30" height="1.875" rx="0.375" fill="white"/>
  
  <!-- Сетка календаря -->
  <line x1="28.125" y1="54.375" x2="54.375" y2="54.375" stroke="#d9d9d9" stroke-width="0.1875"/>
  <line x1="28.125" y1="58.125" x2="54.375" y2="58.125" stroke="#d9d9d9" stroke-width="0.1875"/>
  <line x1="28.125" y1="61.875" x2="54.375" y2="61.875" stroke="#d9d9d9" stroke-width="0.1875"/>
  <line x1="28.125" y1="65.625" x2="54.375" y2="65.625" stroke="#d9d9d9" stroke-width="0.1875"/>
  
  <line x1="33.75" y1="54.375" x2="33.75" y2="67.5" stroke="#d9d9d9" stroke-width="0.1875"/>
  <line x1="39.375" y1="54.375" x2="39.375" y2="67.5" stroke="#d9d9d9" stroke-width="0.1875"/>
  <line x1="45" y1="54.375" x2="45" y2="67.5" stroke="#d9d9d9" stroke-width="0.1875"/>
  <line x1="50.625" y1="54.375" x2="50.625" y2="67.5" stroke="#d9d9d9" stroke-width="0.1875"/>
  
  <!-- Точки в календаре (события) -->
  <circle cx="30.9375" cy="56.25" r="0.5625" fill="#52c41a"/>
  <circle cx="36.5625" cy="60" r="0.5625" fill="#faad14"/>
  <circle cx="42.1875" cy="63.75" r="0.5625" fill="#f5222d"/>
  
  <!-- Заголовок "OJ" -->
  <text x="48" y="9.375" font-family="Arial, sans-serif" font-size="16" font-weight="bold" fill="white" text-anchor="middle">OJ</text>
</svg>